<svg width="80" height="80" viewBox="0 0 80 80" fill="none" xmlns="http://www.w3.org/2000/svg">
<circle cx="40" cy="40" r="40" fill="#5951FF"/>
<circle cx="40" cy="40" r="39" stroke="white" stroke-opacity="0.7" stroke-width="2"/>
<path fill-rule="evenodd" clip-rule="evenodd" d="M45.4022 21.6667H34.5978C33.2562 21.6667 32.1489 21.6667 31.247 21.7403C30.3101 21.8169 29.449 21.9812 28.6401 22.3933C27.3857 23.0325 26.3658 24.0523 25.7266 25.3068C25.3145 26.1156 25.1502 26.9768 25.0737 27.9136C25 28.8156 25 29.9229 25 31.2645V48.7355C25 50.0771 25 51.1844 25.0737 52.0864C25.1502 53.0232 25.3145 53.8844 25.7266 54.6933C26.3658 55.9477 27.3857 56.9676 28.6401 57.6067C29.449 58.0189 30.3101 58.1832 31.247 58.2597C32.1489 58.3334 33.2562 58.3334 34.5978 58.3334H41.6912C41.7403 58.3334 41.7649 58.3334 41.7793 58.3329C42.4938 58.3081 42.8474 57.4543 42.3598 56.9316C42.3499 56.921 42.3325 56.9036 42.2978 56.8689C40.3452 54.9163 40.3452 51.7504 42.2978 49.7978C44.1826 47.9131 47.1977 47.8476 49.161 49.6013L53.1311 45.6312C53.4417 45.3206 53.783 45.0594 54.1452 44.8476C54.5155 44.6311 54.7006 44.5229 54.7881 44.425C54.8797 44.3224 54.9173 44.2568 54.9596 44.1259C55 44.001 55 43.8366 55 43.5078V31.2645C55 29.9229 55 28.8156 54.9263 27.9136C54.8498 26.9768 54.6855 26.1156 54.2734 25.3068C53.6342 24.0523 52.6144 23.0325 51.3599 22.3933C50.551 21.9812 49.6899 21.8169 48.753 21.7403C47.8511 21.6667 46.7438 21.6667 45.4022 21.6667ZM33.3333 35C32.4129 35 31.6667 35.7462 31.6667 36.6667C31.6667 37.5872 32.4129 38.3334 33.3333 38.3334H43.3333C44.2538 38.3334 45 37.5872 45 36.6667C45 35.7462 44.2538 35 43.3333 35H33.3333ZM31.6667 43.3334C31.6667 42.4129 32.4129 41.6667 33.3333 41.6667H36.6667C37.5871 41.6667 38.3333 42.4129 38.3333 43.3334C38.3333 44.2538 37.5871 45 36.6667 45H33.3333C32.4129 45 31.6667 44.2538 31.6667 43.3334ZM33.3333 28.3334C32.4129 28.3334 31.6667 29.0795 31.6667 30C31.6667 30.9205 32.4129 31.6667 33.3333 31.6667H46.6667C47.5871 31.6667 48.3333 30.9205 48.3333 30C48.3333 29.0795 47.5871 28.3334 46.6667 28.3334H33.3333Z" fill="white"/>
<path d="M57.8452 50.3452C58.4961 49.6943 58.4961 48.6391 57.8452 47.9882C57.1943 47.3373 56.139 47.3373 55.4882 47.9882L49.1667 54.3097L47.0118 52.1548C46.361 51.504 45.3057 51.504 44.6548 52.1548C44.0039 52.8057 44.0039 53.861 44.6548 54.5119L47.9882 57.8452C48.639 58.4961 49.6943 58.4961 50.3452 57.8452L57.8452 50.3452Z" fill="white"/>
</svg>
