<svg width="80" height="80" viewBox="0 0 80 80" fill="none" xmlns="http://www.w3.org/2000/svg">
<circle cx="40" cy="40" r="40" fill="#8951FF"/>
<circle cx="40" cy="40" r="39" stroke="white" stroke-opacity="0.7" stroke-width="2"/>
<path fill-rule="evenodd" clip-rule="evenodd" d="M21.6667 25C21.6667 24.0795 22.4128 23.3333 23.3333 23.3333H56.6667C57.5871 23.3333 58.3333 24.0795 58.3333 25C58.3333 25.9205 57.5871 26.6666 56.6667 26.6666V38.7355C56.6667 40.0771 56.6667 41.1844 56.593 42.0864C56.5165 43.0232 56.3522 43.8844 55.94 44.6933C55.3009 45.9477 54.281 46.9675 53.0266 47.6067C52.2177 48.0188 51.3565 48.1831 50.4197 48.2597C49.5177 48.3334 48.4104 48.3333 47.0688 48.3333H44.6034L51.067 53.7196C51.7741 54.3089 51.8697 55.3598 51.2804 56.067C50.6911 56.7741 49.6402 56.8696 48.9331 56.2804L41.6667 50.225V55C41.6667 55.9205 40.9205 56.6667 40 56.6667C39.0795 56.6667 38.3333 55.9205 38.3333 55V50.2251L31.067 56.2804C30.3599 56.8696 29.3089 56.7741 28.7197 56.067C28.1304 55.3598 28.2259 54.3089 28.9331 53.7196L35.3966 48.3333H32.9312C31.5896 48.3333 30.4823 48.3334 29.5803 48.2597C28.6435 48.1831 27.7823 48.0188 26.9734 47.6067C25.719 46.9675 24.6991 45.9477 24.0599 44.6933C23.6478 43.8844 23.4835 43.0232 23.407 42.0864C23.3333 41.1844 23.3333 40.0771 23.3333 38.7355L23.3333 26.6666C22.4128 26.6666 21.6667 25.9205 21.6667 25ZM48.3333 31.6666C48.3333 30.7462 47.5871 30 46.6667 30C45.7462 30 45 30.7462 45 31.6666V40C45 40.9205 45.7462 41.6666 46.6667 41.6666C47.5871 41.6666 48.3333 40.9205 48.3333 40V31.6666ZM40 33.3333C40.9205 33.3333 41.6667 34.0795 41.6667 35V40C41.6667 40.9205 40.9205 41.6666 40 41.6666C39.0795 41.6666 38.3333 40.9205 38.3333 40V35C38.3333 34.0795 39.0795 33.3333 40 33.3333ZM33.3333 36.6666C34.2538 36.6666 35 37.4128 35 38.3333V40C35 40.9205 34.2538 41.6666 33.3333 41.6666C32.4128 41.6666 31.6667 40.9205 31.6667 40V38.3333C31.6667 37.4128 32.4128 36.6666 33.3333 36.6666Z" fill="white"/>
</svg>
