<svg width="80" height="80" viewBox="0 0 80 80" fill="none" xmlns="http://www.w3.org/2000/svg">
<circle cx="40" cy="40" r="40" fill="#36B3FA"/>
<circle cx="40" cy="40" r="39" stroke="white" stroke-opacity="0.7" stroke-width="2"/>
<path fill-rule="evenodd" clip-rule="evenodd" d="M41.7803 29.6808C41.9565 28.7773 42.8318 28.1878 43.7353 28.3641C45.6887 28.7452 47.484 29.7006 48.8914 31.108C50.2987 32.5153 51.2541 34.3106 51.6353 36.2641C51.8115 37.1675 51.222 38.0428 50.3186 38.2191C49.4152 38.3953 48.5399 37.8059 48.3636 36.9024C48.1095 35.6001 47.4726 34.4032 46.5344 33.465C45.5961 32.5268 44.3993 31.8898 43.0969 31.6357C42.1935 31.4595 41.604 30.5842 41.7803 29.6808Z" fill="white"/>
<path fill-rule="evenodd" clip-rule="evenodd" d="M41.7596 23.1492C41.8613 22.2344 42.6853 21.5751 43.6001 21.6768C47.358 22.0943 50.8623 23.7771 53.5376 26.449C56.2129 29.1209 57.9001 32.6231 58.3223 36.3805C58.4251 37.2952 57.7669 38.12 56.8522 38.2228C55.9375 38.3256 55.1126 37.6674 55.0099 36.7527C54.6721 33.7468 53.3223 30.9451 51.1821 28.8075C49.0418 26.67 46.2384 25.3237 43.2321 24.9897C42.3172 24.8881 41.658 24.0641 41.7596 23.1492Z" fill="white"/>
<path fill-rule="evenodd" clip-rule="evenodd" d="M30.5626 49.5868C26.5061 45.5303 23.5564 40.4787 21.9887 34.9633C21.7429 34.0983 21.5522 33.4275 21.5495 32.5077C21.5464 31.4564 21.8889 30.1394 22.4038 29.2228C23.2892 27.6465 25.1905 25.6264 26.8327 24.7958C28.2516 24.0781 29.9273 24.0781 31.3462 24.7958C32.7389 25.5002 34.3366 27.1309 35.1848 28.4355C36.2622 30.0927 36.2622 32.2292 35.1848 33.8864C34.896 34.3305 34.4845 34.7413 34.0067 35.2183C33.8579 35.3668 33.6942 35.4741 33.8029 35.7006C34.8826 37.9494 36.3551 40.0587 38.2229 41.9265C40.0907 43.7943 42.2 45.2668 44.4488 46.3465C44.6817 46.4583 44.7771 46.2971 44.9312 46.1427C45.4081 45.665 45.819 45.2534 46.263 44.9647C47.9203 43.8872 50.0567 43.8872 51.714 44.9647C53.0185 45.8129 54.6492 47.4105 55.3537 48.8033C56.0713 50.2222 56.0713 51.8978 55.3537 53.3167C54.5292 54.9467 52.5257 56.8474 50.9267 57.7457C50.0101 58.2606 48.693 58.6031 47.6417 58.5999C46.7219 58.5972 46.0511 58.4066 45.1861 58.1607C39.6707 56.5932 34.6191 53.6433 30.5626 49.5868Z" fill="white"/>
</svg>
