<svg width="80" height="80" viewBox="0 0 80 80" fill="none" xmlns="http://www.w3.org/2000/svg">
<circle cx="40" cy="40" r="40" fill="#15BE53"/>
<circle cx="40" cy="40" r="39" stroke="white" stroke-opacity="0.7" stroke-width="2"/>
<path d="M35 21.6667C35.9205 21.6667 36.6667 22.4129 36.6667 23.3334V25.8334C36.6667 26.7538 35.9205 27.5 35 27.5C34.0795 27.5 33.3333 26.7538 33.3333 25.8334V23.3334C33.3333 22.4129 34.0795 21.6667 35 21.6667Z" fill="white"/>
<path d="M25.4882 25.4882C26.139 24.8373 27.1943 24.8373 27.8452 25.4882L29.6129 27.2559C30.2638 27.9068 30.2638 28.9621 29.6129 29.613C28.9621 30.2638 27.9068 30.2638 27.2559 29.613L25.4882 27.8452C24.8373 27.1943 24.8373 26.139 25.4882 25.4882Z" fill="white"/>
<path d="M29.6129 42.8452C30.2638 42.1943 30.2638 41.139 29.6129 40.4882C28.9621 39.8373 27.9068 39.8373 27.2559 40.4882L25.4882 42.2559C24.8373 42.9068 24.8373 43.9621 25.4882 44.613C26.139 45.2638 27.1943 45.2638 27.8452 44.613L29.6129 42.8452Z" fill="white"/>
<path d="M44.6129 25.4882C45.2638 26.139 45.2638 27.1943 44.6129 27.8452L42.8452 29.613C42.1943 30.2638 41.139 30.2638 40.4882 29.613C39.8373 28.9621 39.8373 27.9068 40.4882 27.2559L42.2559 25.4882C42.9068 24.8373 43.9621 24.8373 44.6129 25.4882Z" fill="white"/>
<path d="M23.3333 33.3334C22.4129 33.3334 21.6667 34.0795 21.6667 35C21.6667 35.9205 22.4129 36.6667 23.3333 36.6667H25.8333C26.7538 36.6667 27.5 35.9205 27.5 35C27.5 34.0795 26.7538 33.3334 25.8333 33.3334H23.3333Z" fill="white"/>
<path d="M34.6772 32.5802C34.0822 32.3887 33.4301 32.5463 32.9882 32.9882C32.5463 33.4302 32.3887 34.0822 32.5801 34.6772L39.432 55.9735C39.6099 56.5263 40.0627 56.9467 40.6272 57.0831C41.1917 57.2195 41.7864 57.0522 42.1971 56.6415L45.8334 53.0052L50.6734 57.8452C50.986 58.1578 51.4099 58.3334 51.8519 58.3334C52.2939 58.3334 52.7178 58.1578 53.0304 57.8452L57.8452 53.0304C58.1578 52.7179 58.3334 52.2939 58.3334 51.8519C58.3334 51.4099 58.1578 50.986 57.8452 50.6734L53.0052 45.8334L56.6415 42.1971C57.0522 41.7865 57.2194 41.1917 57.0831 40.6272C56.9467 40.0627 56.5263 39.6099 55.9735 39.432L34.6772 32.5802Z" fill="white"/>
</svg>
